<?xml version="1.0" standalone="no"?>
<!DOCTYPE svg PUBLIC "-//W3C//DTD SVG 20010904//EN"
 "http://www.w3.org/TR/2001/REC-SVG-20010904/DTD/svg10.dtd">
<svg version="1.0" xmlns="http://www.w3.org/2000/svg"
 width="256.000000pt" height="256.000000pt" viewBox="0 0 256.000000 256.000000"
 preserveAspectRatio="xMidYMid meet">
<metadata>
Created by potrace 1.14, written by Peter Selinger 2001-2017
</metadata>
<g transform="translate(0.000000,256.000000) scale(0.100000,-0.100000)"
fill="#000000" stroke="none">
<path d="M1140 2554 c-381 -49 -715 -253 -927 -569 -85 -126 -154 -293 -189
-455 -26 -119 -26 -381 0 -500 110 -511 495 -896 1006 -1006 119 -26 381 -26
500 0 338 73 626 268 817 551 85 126 154 293 189 455 26 119 26 381 0 500 -35
162 -104 329 -189 455 -56 83 -77 108 -170 203 -166 169 -383 288 -627 343
-83 19 -331 33 -410 23z m-340 -594 c-10 -56 -68 -253 -140 -471 l-22 -66 51
-88 c48 -83 51 -94 51 -157 0 -65 -1 -68 -24 -68 -36 0 -68 32 -100 99 -17 33
-32 61 -35 61 -3 0 -33 -72 -66 -160 -33 -88 -63 -160 -67 -160 -5 0 -8 46 -8
103 0 78 7 137 31 248 l32 146 -64 134 c-53 112 -63 143 -63 187 0 89 14 81
89 -48 38 -66 72 -120 75 -119 3 0 64 118 135 262 l130 262 3 -50 c2 -27 -2
-79 -8 -115z m1380 118 c-1 -13 -13 -89 -29 -169 -28 -143 -30 -150 -120 -325
l-92 -180 85 -189 c47 -104 85 -190 83 -191 -1 -1 -16 3 -33 11 -18 7 -63 54
-115 118 -46 58 -87 106 -91 106 -3 1 -48 -77 -99 -171 -88 -163 -93 -171
-101 -143 -21 76 -12 120 52 278 l62 154 -25 39 c-14 21 -38 70 -53 107 -30
74 -27 99 14 105 23 3 23 5 2 105 -4 20 -4 37 1 37 18 0 83 -78 111 -134 l30
-59 32 74 c43 98 129 268 178 351 47 82 108 125 108 76z m-1257 -1370 c-4 -13
-8 -53 -8 -90 0 -59 3 -71 25 -93 14 -14 41 -30 60 -35 33 -9 36 -8 85 45 30
33 59 55 72 55 12 0 44 -23 75 -54 30 -30 67 -58 82 -62 62 -15 152 39 208
125 32 50 31 31 -4 -52 -33 -77 -109 -127 -192 -127 -47 0 -85 22 -134 77 -31
36 -33 37 -45 18 -7 -11 -28 -37 -48 -57 -33 -34 -42 -38 -86 -38 -63 0 -140
32 -171 70 -49 62 -37 162 27 217 35 31 65 31 54 1z"/>
</g>
</svg>
