<?xml version="1.0" standalone="no"?>
<!DOCTYPE svg PUBLIC "-//W3C//DTD SVG 20010904//EN"
 "http://www.w3.org/TR/2001/REC-SVG-20010904/DTD/svg10.dtd">
<svg version="1.0" xmlns="http://www.w3.org/2000/svg"
 width="512.000000pt" height="512.000000pt" viewBox="0 0 512.000000 512.000000"
 preserveAspectRatio="xMidYMid meet">
<metadata>
Created by potrace 1.14, written by Peter Selinger 2001-2017
</metadata>
<g transform="translate(0.000000,512.000000) scale(0.100000,-0.100000)"
fill="#000000" stroke="none">
<path d="M1485 3993 c-71 -141 -181 -355 -242 -477 -62 -122 -120 -241 -129
-266 -10 -25 -20 -48 -23 -52 -5 -5 -165 259 -266 441 -39 69 -37 69 -56 -10
-33 -138 -31 -146 95 -413 36 -76 66 -139 66 -141 0 -2 19 -42 41 -91 l42 -87
-17 -76 c-10 -42 -19 -87 -22 -101 -3 -14 -10 -45 -15 -70 -6 -25 -13 -56 -15
-70 -3 -14 -13 -61 -24 -105 -10 -44 -22 -107 -27 -140 -14 -108 -8 -434 9
-451 3 -2 42 94 88 214 46 119 89 231 95 247 17 41 72 187 78 205 2 8 30 -39
61 -105 76 -160 113 -198 213 -221 l54 -12 -2 131 c-1 78 -6 146 -14 168 -7
20 -54 106 -104 191 l-92 155 19 44 c11 24 49 139 86 254 211 658 206 643 220
735 2 19 8 57 11 83 9 61 14 277 6 277 -3 0 -64 -116 -136 -257z"/>
<path d="M4325 4193 c-46 -11 -105 -60 -143 -118 -89 -136 -324 -599 -417
-822 -21 -51 -41 -90 -45 -88 -3 2 -21 39 -40 82 -51 118 -127 217 -221 287
l-36 26 10 -52 c5 -29 17 -93 26 -143 l16 -90 -50 -20 c-74 -30 -78 -51 -30
-172 51 -127 95 -216 137 -277 l34 -49 -125 -301 c-111 -269 -125 -308 -127
-368 -1 -37 1 -82 6 -100 12 -43 23 -118 22 -143 l-1 -20 15 20 c8 11 42 72
76 135 34 63 71 133 83 155 12 22 44 81 70 130 26 50 70 132 97 182 l50 93 22
-28 c13 -15 45 -55 72 -88 242 -304 244 -306 319 -346 39 -21 73 -38 77 -38 6
0 -18 58 -82 195 -15 33 -67 148 -115 255 -48 107 -100 224 -116 259 l-29 63
71 142 c39 77 75 146 79 151 26 35 220 436 225 465 3 19 8 42 10 50 2 8 7 31
10 50 7 47 88 471 97 509 3 16 -16 22 -47 14z"/>
<path d="M1791 1453 c-53 -27 -110 -88 -138 -150 -49 -106 -24 -260 53 -337
91 -91 284 -135 424 -96 51 14 103 63 135 125 45 90 65 95 114 27 57 -78 93
-112 146 -140 96 -49 266 -30 377 44 88 59 129 127 188 318 21 66 15 64 -25
-9 -60 -111 -138 -188 -242 -241 -144 -72 -225 -56 -336 68 -34 38 -76 80 -94
93 -78 60 -166 26 -224 -86 -44 -88 -111 -109 -205 -65 -122 57 -169 194 -125
361 10 39 20 77 22 85 6 21 -30 23 -70 3z"/>
</g>
</svg>
