<?xml version="1.0" encoding="utf-8"?>
<!-- Generator: Adobe Illustrator 26.0.2, SVG Export Plug-In . SVG Version: 6.00 Build 0)  -->
<svg version="1.1" id="_圖層_1" xmlns="http://www.w3.org/2000/svg" xmlns:xlink="http://www.w3.org/1999/xlink" x="0px" y="0px"
	 viewBox="0 0 1171.2 790.1" style="enable-background:new 0 0 1171.2 790.1;" xml:space="preserve">
<style type="text/css">
	.st0{display:none;}
	.st1{display:inline;fill:none;stroke:#000000;stroke-width:60;stroke-miterlimit:10;}
	.st2{display:inline;fill:none;stroke:#000000;stroke-width:100;stroke-miterlimit:10;}
</style>
<g id="emoji">
	<path id="eye-left-left" d="M349.1,76.2L344.9,93c-1.8,7.4-1.1,15.2,2.1,22.1l66.4,142.2c5.5,11.7,17.2,19.2,30.1,19.2l0,0v-29.1
		c0-5.9-1.6-11.7-4.5-16.7L349.1,76.2L349.1,76.2z"/>
	<path id="eye-left-right" d="M462,0l-61.8,121.3c-7.7,15-13.4,31-17,47.4l-16.8,75.6c-5.7,25.9-6.3,52.6-1.7,78.7l0,0L419,181.8
		c1.4-3.7,2.7-7.3,3.9-11.1l29.7-93.1c6.3-19.7,9.5-40.2,9.5-60.8L462,0L462,0z"/>
	<path id="eye-right-left" d="M704.9,95.2l7,39.5l0,0c-5.5,0-13,3.2-15.3,7.5c-1.8,3.3,0.5,7.2,1.8,11.2c0,0,10.9,26.9,15.8,35.6
		c9.3,16.4,77.5,99.9,77.5,99.9c1.3,1.6,3,2.8,4.8,3.7l16.9,8L764,191.1l-30-65.4c-0.7-1.5-13.8-18.3-15-19.5L704.9,95.2L704.9,95.2
		z"/>
	<path id="eye-right-right" d="M798.4,40.6c0,0-35.6,62.8-56.2,117.7c-6.7,17.8-50.9,125-50.9,125c-2.5,9.2-1.7,18.1,0.5,27.4
		c1.1,4.6,3,18.6,3,18.6l71.9-134l46.1-89.5c2.2-4.2,3.7-8.7,4.6-13.4L833,9.2l0,0C814.7,9.2,806.9,24.5,798.4,40.6L798.4,40.6z"/>
	<path id="mouth" d="M494.1,380.7c0.8-2-0.9-4.2-3.1-3.7c-11.1,2.4-38.2,21.1-25.5,56.7c10.1,28.6,60.7,31.7,73.4,20.5
		c12.7-11.3,11-23.3,18.1-23.3s13.9,29.7,42.8,29.4c28.9-0.3,45.7-14.2,52.7-31.2c7-16.9,9.8-32.1,9.8-32.1s-9.9,27.5-31.7,40.9
		c-23.1,14.2-37,11.3-49.4-2.1c-6.1-6.6-15.2-21.2-27.7-20.2c-20.3,1.5-15.5,37.9-44.9,25.2C487.4,431.6,483.7,406.8,494.1,380.7
		L494.1,380.7z"/>
</g>
<g id="text">
	<polygon points="528.7,643.4 528.7,643.2 502.1,643.2 515.5,656.5 490.3,737.3 460.4,657.3 436.7,657.3 407.3,737.3 381.9,657.3 
		395.9,643.3 369.3,643.3 369.3,643.4 349.2,643.4 394.3,777.7 418.2,777.7 448.1,684 478.7,777.7 502.4,777.7 547,643.4 	"/>
	<polygon points="309.7,643.5 309.7,734.1 242.3,644 217,644 217,764.4 203.7,777.7 217,777.7 230.2,777.7 243.1,777.7 243.1,685.8 
		311.6,777.7 335.9,777.7 335.9,643.5 	"/>
	<polygon points="161.4,643.5 161.4,757.8 101.1,757.8 101.1,691.5 74.4,718.3 74.4,777.7 161.4,777.7 174.8,777.7 188.1,764.4 
		188.1,643.5 	"/>
	<polygon points="643.4,712.9 643.4,689.2 639.4,689.2 629.1,699.5 629.1,727.2 	"/>
	<polygon points="744.7,714.7 734.8,724.6 734.8,766.4 749.1,752.1 749.1,729 772.2,729 783.3,717.9 780.2,714.7 	"/>
	<polygon points="930.6,777.7 1027.8,777.7 1050.7,754.8 1021.7,754.8 1102.4,663.8 1102.4,643.3 989.4,643.3 989.4,666.2 
		1066.8,666.2 985.5,757.2 985.5,775 949.1,775 951.9,772.2 951.9,763.3 945.7,763.3 	"/>
	<g>
		<path d="M942.8,754.5l9.2-9.2v-31h-44.8L896.5,725v50h-18l2.8-2.8v-57.9H867L850.3,731v-16.7H836L819.3,731v-16.7h-6l-8.3,8.3V775
			h-22.8l8.1-8.3V725l-0.9-1.2l23.8-23.8h-0.1l-37.2,37.2v26.1h-26.1l-9.2,9.2l2.3,2.3h-4.7H734h-15.6l2.4-2.4v-9.3h-41.2V729h41.2
			v-14.3h-45.5l-10,10V775h-29.6l7.8-7.8V724l-14.4,14.4V775h-25.8l4-4v-7.7h-41.2v-8.8h41.2v-40.2h-45.2l-10.3,10.3v53h179.4h4.3
			h190.8l2.8-2.7h-6.8l11.7-11.7h-23.2v-8.8h32V754.5z M910.8,728.6h26.9v11.6h-26.9V728.6z M566.1,728.6H593v11.6h-26.9V728.6z
			 M836,775h-16.7v-23.8l16.7-16.7V775z M867,775h-19.4l2.7-2.7v-21.1l16.7-16.7V775z"/>
		<polygon points="945.8,759 929.1,775 929.1,775 		"/>
	</g>
	<polygon points="1100.4,775 1100.4,754.5 1100.4,740.6 1086.4,754.7 1062,754.7 1039,777.7 1171.2,777.7 1171.2,775 	"/>
	<polygon points="101.1,679.4 101.1,643.4 74.4,643.4 74.4,706.1 	"/>
</g>
<g id="stars">
	<path id="star1" d="M17.2,746.9c0.2,1.1,0.8,9.3,4.3,12.8s11.7,4.1,12.8,4.3c-1.1,0.2-9.3,0.8-12.8,4.3s-4.1,11.7-4.3,12.8
		c-0.2-1.1-0.8-9.3-4.3-12.8S1.1,764.2,0,764c1.1-0.2,9.3-0.8,12.8-4.3S17,748,17.2,746.9z"/>
	<path id="star3" d="M1128.6,669.4c0.2,1,0.8,8.5,4,11.8c3.2,3.2,10.8,3.8,11.8,4c-1,0.2-8.5,0.8-11.8,4c-3.2,3.2-3.8,10.8-4,11.8
		c-0.2-1-0.8-8.5-4-11.8c-3.2-3.2-10.8-3.8-11.8-4c1-0.2,8.5-0.8,11.8-4C1127.8,677.9,1128.4,670.4,1128.6,669.4z"/>
	<path id="star2" d="M824.8,677c0.1,0.5,0.4,4.4,2.1,6.1c1.7,1.7,5.6,2,6.1,2.1c-0.5,0.1-4.4,0.4-6.1,2.1c-1.7,1.7-2,5.6-2.1,6.1
		c-0.1-0.5-0.4-4.4-2.1-6.1s-5.6-2-6.1-2.1c0.5-0.1,4.4-0.4,6.1-2.1S824.7,677.5,824.8,677z"/>
</g>
<g id="lines">
	<polygon id="line2" points="661,706.5 658.8,704.3 629.1,734 629.1,738.3 629.1,738.4 643.5,724 	"/>
	<polygon id="line4" points="962.5,743 945.8,759 926.3,777.7 930.6,777.7 964.7,745.2 	"/>
	<polygon id="line3" points="749.8,763.3 775.9,737.2 813.1,700 811,697.8 738.5,770.3 740.6,772.5 	"/>
	<polygon id="line5" points="1110.4,706.3 1108.2,704.2 1024.4,788 1026.6,790.1 1039,777.7 1062,754.7 	"/>
	<polygon id="line1" points="120.1,660.4 115,665.5 101.1,679.4 64,716.5 101.1,679.4 101.1,679.4 38.2,742.3 40.4,744.5 
		137.1,647.8 139.2,645.6 137,643.5 	"/>
</g>
<g id="masks" class="st0">
	<line id="mask-right-left" class="st1" x1="682" y1="82.3" x2="827.3" y2="336.2"/>
	<line id="mask-left-right" class="st1" x1="468.5" y1="0" x2="349.2" y2="323"/>
	<line id="mask-right-right" class="st1" x1="839" y1="2" x2="689.8" y2="350.7"/>
	<line id="mask-left-left" class="st1" x1="316.8" y1="46.6" x2="462.2" y2="300.6"/>
	<line id="mask-mouth" class="st2" x1="377.9" y1="420.4" x2="796.2" y2="418.6"/>
</g>
</svg>
